<?xml version="1.0" encoding="iso-8859-1"?>
<!-- Uploaded to: SVG Repo, www.svgrepo.com, Generator: SVG Repo Mixer Tools -->
<svg version="1.1" id="Layer_1" xmlns="http://www.w3.org/2000/svg" xmlns:xlink="http://www.w3.org/1999/xlink" 
	 viewBox="0 0 512.003 512.003" xml:space="preserve">
<polygon style="fill:#946C55;" points="497.468,254.462 175.112,254.462 175.112,486.071 512,486.071 512,284.108 "/>
<polygon style="fill:#FF8C64;" points="424.444,105.494 87.556,105.494 87.556,284.023 87.893,284.108 175.112,284.108 512,284.108 
	"/>
<polygon style="fill:#FFA080;" points="441.612,140.516 424.444,105.493 87.556,105.493 104.724,140.516 "/>
<polygon style="fill:#C89173;" points="0,486.071 0,284.108 87.556,105.494 175.112,284.108 175.112,486.071 "/>
<rect x="42.132" y="305.341" style="fill:#946C55;" width="90.86" height="180.727"/>
<g>
	<rect x="175.112" y="331.386" style="fill:#C89173;" width="336.892" height="17.511"/>
	<rect x="175.112" y="407.268" style="fill:#C89173;" width="336.892" height="17.511"/>
</g>
<rect x="303.912" y="48.289" style="fill:#946C55;" width="77.049" height="119.858"/>
<rect x="303.912" y="48.289" style="fill:#7A5946;" width="35.022" height="119.858"/>
<rect x="291.374" y="25.945" style="fill:#C89173;" width="104.367" height="36.798"/>
<rect x="291.374" y="25.933" style="fill:#AD7E64;" width="35.022" height="36.798"/>
</svg>